<svg width="30" height="30" viewBox="0 0 30 30" fill="none" xmlns="http://www.w3.org/2000/svg">
<path d="M12 1.73207C13.8564 0.660274 16.1436 0.660274 18 1.73207L24.9904 5.76797C26.8468 6.83977 27.9904 8.82053 27.9904 10.9641V19.0359C27.9904 21.1795 26.8468 23.1603 24.9904 24.232L18 28.268C16.1436 29.3397 13.8564 29.3397 12 28.268L5.00964 24.232C3.15323 23.1603 2.00964 21.1795 2.00964 19.0359V10.9641C2.00964 8.82053 3.15323 6.83977 5.00964 5.76797L12 1.73207Z" fill="#50CD89"/>
<path d="M10.23 10.327H10.298C11.6693 10.5763 12.355 11.2393 12.355 12.316V12.622C12.355 13.812 11.5957 14.9963 10.077 16.175V16.243C12.5363 18.4417 14.2363 19.541 15.177 19.541C15.347 19.6657 15.432 19.8187 15.432 20C15.432 20.2607 15.2393 20.425 14.854 20.493C13.9133 20.493 12.1567 19.3597 9.584 17.093L8.853 16.702H8.802C9.11933 17.9713 9.278 18.9517 9.278 19.643C9.278 19.9377 9.09667 20.1473 8.734 20.272C8.21267 20.272 7.884 18.997 7.748 16.447C7.38533 15.2683 7.204 14.3277 7.204 13.625V13.472C7.204 12.4407 7.43067 11.925 7.884 11.925L8.207 12.095H8.309C8.853 10.9163 9.49333 10.327 10.23 10.327ZM8.853 14.866L8.802 15.495C9.856 15.495 10.706 14.6223 11.352 12.877V12.248C11.352 11.7493 11.012 11.449 10.332 11.347H10.23C9.516 11.347 9.057 12.52 8.853 14.866ZM18.841 9.902L19.266 9.766C19.6514 9.766 19.844 10.276 19.844 11.296L20.371 15.223L20.439 15.291L22.394 14.577C22.6547 14.577 22.7964 14.7753 22.819 15.172C22.819 15.4667 22.0994 15.8237 20.66 16.243L20.592 16.277V16.345C20.592 16.583 20.966 17.824 21.714 20.068V20.102C21.714 20.3173 21.5384 20.4987 21.187 20.646C20.8584 20.646 20.643 20.255 20.541 19.473C20.2804 18.9063 19.963 17.9713 19.589 16.668H19.521C18.0364 16.974 17.294 17.2347 17.294 17.45C16.478 19.218 15.8604 20.102 15.441 20.102C15.203 20.102 15.0614 19.949 15.016 19.643C15.016 19.371 15.3164 18.8383 15.917 18.045L16.189 17.45H15.764L15.441 17.518C15.0217 17.416 14.812 17.2007 14.812 16.872C14.982 16.4753 15.2314 16.277 15.56 16.277L15.985 16.447C16.6197 16.447 16.937 16.2147 16.937 15.75C17.515 14.39 18.1497 12.4407 18.841 9.902ZM18.994 12.996L17.991 16.022C18.9204 15.8407 19.385 15.665 19.385 15.495C19.215 13.829 19.0847 12.996 18.994 12.996Z" fill="white"/>
</svg>
