<svg width="40" height="40" viewBox="0 0 40 40" fill="none" xmlns="http://www.w3.org/2000/svg">
<g opacity="0.3" filter="url(#filter0_i_1_51)">
<path d="M20.5 4C29.6126 4 37 11.3874 37 20.5C37 29.6127 29.6126 37 20.5 37C11.3873 37 4 29.6127 4 20.5C4 11.3874 11.3873 4 20.5 4Z" fill="black"/>
</g>
<path d="M25.945 10.6332C26.935 10.1357 28.09 9.63821 29.08 9.14072C27.43 7.3166 25.615 5.65829 23.635 4.33166C22.645 4.16583 21.49 4 20.5 4C19.345 4 18.355 4.16583 17.365 4.33166C20.5 5.98995 23.47 8.14573 25.945 10.6332ZM20.5 14.613C17.365 11.6281 13.57 9.47238 9.445 8.31157C10.435 7.3166 11.59 6.65327 12.745 5.98995C16.54 7.48241 20.17 9.63821 22.975 12.4573C22.15 13.1206 21.325 13.7839 20.5 14.613ZM28.75 33.8492C28.75 34.1809 28.75 34.5126 28.75 34.8442C30.07 34.0151 31.225 33.1859 32.215 32.191C32.71 30.5327 33.7 29.206 35.02 28.2111C35.68 26.8844 36.175 25.5578 36.505 24.0653C32.05 25.0603 28.75 29.0402 28.75 33.8492ZM22.81 17.1005C25.945 14.1156 29.74 12.1256 34.03 11.1307C34.69 12.1256 35.35 13.1206 35.68 14.2814C31.39 14.9447 27.595 16.9347 24.625 19.9196C24.13 18.7588 23.47 17.9296 22.81 17.1005ZM36.67 17.4322C36.835 18.4271 37 19.5879 37 20.5829C37 20.5829 37 20.5829 37 20.7487C33.205 21.2462 29.74 23.402 27.76 26.5528C27.43 25.2261 26.935 24.0653 26.44 22.9045C28.915 19.9196 32.545 17.9296 36.67 17.4322ZM22.15 33.8492C22.15 23.8995 14.89 15.6081 5.32 14.1156C5.815 12.9548 6.31 11.9598 6.97 10.9648C17.53 13.1206 25.45 22.407 25.45 33.6834C25.45 34.5126 25.45 35.5075 25.285 36.3367C24.13 36.6683 22.975 36.8342 21.82 37C21.985 36.005 22.15 35.01 22.15 33.8492ZM8.785 32.191C8.29 30.5327 7.3 29.206 5.98 28.2111C5.32 26.8844 4.825 25.5578 4.495 24.0653C8.95 25.0603 12.415 29.0402 12.415 33.8492C12.415 34.1809 12.415 34.5126 12.415 34.8442C10.93 34.1809 9.775 33.1859 8.785 32.191ZM15.55 33.8492C15.55 27.0503 10.435 21.5779 4 20.7487C4 20.7487 4 20.7487 4 20.5829C4 19.4221 4.165 18.4271 4.33 17.4322C12.58 18.4271 18.85 25.392 18.85 33.8492C18.85 35.01 18.685 36.005 18.52 37C17.365 36.8342 16.375 36.6683 15.22 36.3367C15.385 35.5075 15.55 34.6784 15.55 33.8492Z" fill="#F6C000"/>
<defs>
<filter id="filter0_i_1_51" x="4" y="4" width="33" height="37" filterUnits="userSpaceOnUse" color-interpolation-filters="sRGB">
<feFlood flood-opacity="0" result="BackgroundImageFix"/>
<feBlend mode="normal" in="SourceGraphic" in2="BackgroundImageFix" result="shape"/>
<feColorMatrix in="SourceAlpha" type="matrix" values="0 0 0 0 0 0 0 0 0 0 0 0 0 0 0 0 0 0 127 0" result="hardAlpha"/>
<feOffset dy="4"/>
<feGaussianBlur stdDeviation="2"/>
<feComposite in2="hardAlpha" operator="arithmetic" k2="-1" k3="1"/>
<feColorMatrix type="matrix" values="0 0 0 0 0 0 0 0 0 0 0 0 0 0 0 0 0 0 0.25 0"/>
<feBlend mode="normal" in2="shape" result="effect1_innerShadow_1_51"/>
</filter>
</defs>
</svg>
